<svg width="110" height="25" viewBox="0 0 110 25" fill="none" xmlns="http://www.w3.org/2000/svg">
<path d="M0.4535 24V1.6H9.4455C11.7708 1.6 13.5415 2.144 14.7575 3.232C15.9948 4.29867 16.6135 5.67467 16.6135 7.36C16.6135 8.768 16.2295 9.89867 15.4615 10.752C14.7148 11.584 13.7975 12.1493 12.7095 12.448C13.9895 12.704 15.0455 13.344 15.8775 14.368C16.7095 15.3707 17.1255 16.544 17.1255 17.888C17.1255 19.6587 16.4855 21.12 15.2055 22.272C13.9255 23.424 12.1122 24 9.7655 24H0.4535ZM4.5495 11.008H8.8375C9.9895 11.008 10.8748 10.7413 11.4935 10.208C12.1122 9.67467 12.4215 8.91733 12.4215 7.936C12.4215 6.99733 12.1122 6.26133 11.4935 5.728C10.8962 5.17333 9.9895 4.896 8.7735 4.896H4.5495V11.008ZM4.5495 20.672H9.1255C10.3415 20.672 11.2802 20.3947 11.9415 19.84C12.6242 19.264 12.9655 18.464 12.9655 17.44C12.9655 16.3947 12.6135 15.5733 11.9095 14.976C11.2055 14.3787 10.2562 14.08 9.0615 14.08H4.5495V20.672ZM26.977 24.384C25.377 24.384 23.9583 24.0427 22.721 23.36C21.4837 22.6773 20.513 21.7173 19.809 20.48C19.105 19.2427 18.753 17.8133 18.753 16.192C18.753 14.5493 19.0943 13.088 19.777 11.808C20.481 10.528 21.441 9.536 22.657 8.832C23.8943 8.10667 25.345 7.744 27.009 7.744C28.5663 7.744 29.9423 8.08533 31.137 8.768C32.3317 9.45067 33.2597 10.3893 33.921 11.584C34.6037 12.7573 34.945 14.0693 34.945 15.52C34.945 15.7547 34.9343 16 34.913 16.256C34.913 16.512 34.9023 16.7787 34.881 17.056H22.817C22.9023 18.2933 23.329 19.264 24.097 19.968C24.8863 20.672 25.8357 21.024 26.945 21.024C27.777 21.024 28.4703 20.8427 29.025 20.48C29.601 20.096 30.0277 19.6053 30.305 19.008H34.465C34.1663 20.0107 33.665 20.928 32.961 21.76C32.2783 22.5707 31.425 23.2107 30.401 23.68C29.3983 24.1493 28.257 24.384 26.977 24.384ZM27.009 11.072C26.0063 11.072 25.121 11.36 24.353 11.936C23.585 12.4907 23.0943 13.344 22.881 14.496H30.785C30.721 13.4507 30.337 12.6187 29.633 12C28.929 11.3813 28.0543 11.072 27.009 11.072ZM42.582 24.384C41.2167 24.384 40.0967 24.1707 39.222 23.744C38.3473 23.296 37.6967 22.7093 37.27 21.984C36.8433 21.2587 36.63 20.4587 36.63 19.584C36.63 18.112 37.206 16.9173 38.358 16C39.51 15.0827 41.238 14.624 43.542 14.624H47.574V14.24C47.574 13.152 47.2647 12.352 46.646 11.84C46.0273 11.328 45.2593 11.072 44.342 11.072C43.51 11.072 42.7847 11.2747 42.166 11.68C41.5473 12.064 41.1633 12.64 41.014 13.408H37.014C37.1207 12.256 37.5047 11.2533 38.166 10.4C38.8487 9.54667 39.7233 8.896 40.79 8.448C41.8567 7.97867 43.0513 7.744 44.374 7.744C46.6353 7.744 48.4167 8.30933 49.718 9.44C51.0193 10.5707 51.67 12.1707 51.67 14.24V24H48.182L47.798 21.44C47.3287 22.2933 46.6673 22.9973 45.814 23.552C44.982 24.1067 43.9047 24.384 42.582 24.384ZM43.51 21.184C44.6833 21.184 45.59 20.8 46.23 20.032C46.8913 19.264 47.3073 18.3147 47.478 17.184H43.99C42.902 17.184 42.1233 17.3867 41.654 17.792C41.1847 18.176 40.95 18.656 40.95 19.232C40.95 19.8507 41.1847 20.3307 41.654 20.672C42.1233 21.0133 42.742 21.184 43.51 21.184ZM54.2988 24V8.128H57.9148L58.2348 10.816C58.7254 9.87733 59.4294 9.13067 60.3468 8.576C61.2854 8.02133 62.3841 7.744 63.6428 7.744C65.6054 7.744 67.1308 8.36267 68.2188 9.6C69.3067 10.8373 69.8507 12.6507 69.8507 15.04V24H65.7548V15.424C65.7548 14.0587 65.4774 13.0133 64.9228 12.288C64.3681 11.5627 63.5041 11.2 62.3308 11.2C61.1788 11.2 60.2294 11.6053 59.4828 12.416C58.7574 13.2267 58.3948 14.3573 58.3948 15.808V24H54.2988ZM81.8955 24.384C80.7008 24.384 79.6555 24.16 78.7595 23.712C77.8635 23.264 77.1382 22.6347 76.5835 21.824L76.1355 24H72.4875V0.959999H76.5835V10.4C77.0955 9.696 77.7675 9.07733 78.5995 8.544C79.4528 8.01067 80.5515 7.744 81.8955 7.744C83.3888 7.744 84.7222 8.10667 85.8955 8.832C87.0688 9.55733 87.9968 10.5493 88.6795 11.808C89.3622 13.0667 89.7035 14.496 89.7035 16.096C89.7035 17.696 89.3622 19.1253 88.6795 20.384C87.9968 21.6213 87.0688 22.6027 85.8955 23.328C84.7222 24.032 83.3888 24.384 81.8955 24.384ZM81.0315 20.8C82.3328 20.8 83.4102 20.3627 84.2635 19.488C85.1168 18.6133 85.5435 17.4827 85.5435 16.096C85.5435 14.7093 85.1168 13.568 84.2635 12.672C83.4102 11.776 82.3328 11.328 81.0315 11.328C79.7088 11.328 78.6208 11.776 77.7675 12.672C76.9355 13.5467 76.5195 14.6773 76.5195 16.064C76.5195 17.4507 76.9355 18.592 77.7675 19.488C78.6208 20.3627 79.7088 20.8 81.0315 20.8ZM94.2905 5.664C93.5438 5.664 92.9252 5.44 92.4345 4.992C91.9652 4.544 91.7305 3.97867 91.7305 3.296C91.7305 2.61333 91.9652 2.05867 92.4345 1.632C92.9252 1.184 93.5438 0.959999 94.2905 0.959999C95.0372 0.959999 95.6452 1.184 96.1145 1.632C96.6052 2.05867 96.8505 2.61333 96.8505 3.296C96.8505 3.97867 96.6052 4.544 96.1145 4.992C95.6452 5.44 95.0372 5.664 94.2905 5.664ZM92.2425 24V8.128H96.3385V24H92.2425ZM106.406 24C104.742 24 103.408 23.5947 102.406 22.784C101.403 21.9733 100.902 20.5333 100.902 18.464V11.552H98.1818V8.128H100.902L101.382 3.872H104.998V8.128H109.286V11.552H104.998V18.496C104.998 19.264 105.158 19.7973 105.478 20.096C105.819 20.3733 106.395 20.512 107.206 20.512H109.19V24H106.406Z" fill="#F7931A"/>
</svg>
