<svg width="99" height="71" viewBox="0 0 99 71" fill="none" xmlns="http://www.w3.org/2000/svg">
<g filter="url(#filter0_d_2_22)">
<path d="M89 11C94 23.0001 81.796 52.4399 57.5233 58.9437C33.2506 65.4476 8.99997 58.9437 5.55032 40.7763C2.10067 22.6089 20 23 43 23C66 4.81309e-05 84 -0.999963 89 11Z" fill="#FFD064"/>
</g>
<ellipse cx="44.4821" cy="22.8627" rx="6.07546" ry="2.37102" transform="rotate(-22.4181 44.4821 22.8627)" fill="white"/>
<path d="M90.147 17.5C90.2618 21.2338 88.697 22.9951 87.647 23C86.8186 23 87.647 20.2614 87.647 17.5C87.647 14.7386 87.3186 10.5 88.147 10.5C89.0766 10.0815 90.0322 13.7663 90.147 17.5Z" fill="white"/>
<defs>
<filter id="filter0_d_2_22" x="1.12328" y="3.41489" width="92.9829" height="65.9892" filterUnits="userSpaceOnUse" color-interpolation-filters="sRGB">
<feFlood flood-opacity="0" result="BackgroundImageFix"/>
<feColorMatrix in="SourceAlpha" type="matrix" values="0 0 0 0 0 0 0 0 0 0 0 0 0 0 0 0 0 0 127 0" result="hardAlpha"/>
<feOffset dy="4"/>
<feGaussianBlur stdDeviation="2"/>
<feComposite in2="hardAlpha" operator="out"/>
<feColorMatrix type="matrix" values="0 0 0 0 0 0 0 0 0 0 0 0 0 0 0 0 0 0 0.25 0"/>
<feBlend mode="normal" in2="BackgroundImageFix" result="effect1_dropShadow_2_22"/>
<feBlend mode="normal" in="SourceGraphic" in2="effect1_dropShadow_2_22" result="shape"/>
</filter>
</defs>
</svg>
