<svg width="234" height="50" viewBox="0 0 234 50" fill="none" xmlns="http://www.w3.org/2000/svg">
<g filter="url(#filter0_d_5_17)">
<path d="M62.1925 7.34211C65.603 15.5097 57.2787 35.5472 40.7223 39.9739C24.1659 44.4006 7.6246 39.9739 5.2716 27.6087C2.91861 15.2434 15.1277 15.5096 30.8159 15.5096C46.5042 -0.144793 58.782 -0.825428 62.1925 7.34211Z" fill="#FFD064"/>
</g>
<ellipse rx="4.14276" ry="1.61429" transform="matrix(0.924715 -0.38066 0.382066 0.924135 31.8269 15.4162)" fill="white"/>
<path d="M62.9748 11.7662C63.0531 14.3075 61.9858 15.5063 61.2696 15.5096C60.7045 15.5096 61.2696 13.6457 61.2696 11.7662C61.2696 9.88667 61.0456 7.00178 61.6106 7.00178C62.2447 6.71694 62.8965 9.22488 62.9748 11.7662Z" fill="white"/>
<path d="M78.9419 38V10H90.1819C93.0885 10 95.3019 10.68 96.8219 12.04C98.3685 13.3733 99.1419 15.0933 99.1419 17.2C99.1419 18.96 98.6619 20.3733 97.7019 21.44C96.7685 22.48 95.6219 23.1867 94.2619 23.56C95.8619 23.88 97.1819 24.68 98.2219 25.96C99.2619 27.2133 99.7819 28.68 99.7819 30.36C99.7819 32.5733 98.9819 34.4 97.3819 35.84C95.7819 37.28 93.5152 38 90.5819 38H78.9419ZM84.0619 21.76H89.4219C90.8619 21.76 91.9685 21.4267 92.7419 20.76C93.5152 20.0933 93.9019 19.1467 93.9019 17.92C93.9019 16.7467 93.5152 15.8267 92.7419 15.16C91.9952 14.4667 90.8619 14.12 89.3419 14.12H84.0619V21.76ZM84.0619 33.84H89.7819C91.3019 33.84 92.4752 33.4933 93.3019 32.8C94.1552 32.08 94.5819 31.08 94.5819 29.8C94.5819 28.4933 94.1419 27.4667 93.2619 26.72C92.3819 25.9733 91.1952 25.6 89.7019 25.6H84.0619V33.84ZM112.096 38.48C110.096 38.48 108.323 38.0533 106.776 37.2C105.23 36.3467 104.016 35.1467 103.136 33.6C102.256 32.0533 101.816 30.2667 101.816 28.24C101.816 26.1867 102.243 24.36 103.096 22.76C103.976 21.16 105.176 19.92 106.696 19.04C108.243 18.1333 110.056 17.68 112.136 17.68C114.083 17.68 115.803 18.1067 117.296 18.96C118.79 19.8133 119.95 20.9867 120.776 22.48C121.63 23.9467 122.056 25.5867 122.056 27.4C122.056 27.6933 122.043 28 122.016 28.32C122.016 28.64 122.003 28.9733 121.976 29.32H106.896C107.003 30.8667 107.536 32.08 108.496 32.96C109.483 33.84 110.67 34.28 112.056 34.28C113.096 34.28 113.963 34.0533 114.656 33.6C115.376 33.12 115.91 32.5067 116.256 31.76H121.456C121.083 33.0133 120.456 34.16 119.576 35.2C118.723 36.2133 117.656 37.0133 116.376 37.6C115.123 38.1867 113.696 38.48 112.096 38.48ZM112.136 21.84C110.883 21.84 109.776 22.2 108.816 22.92C107.856 23.6133 107.243 24.68 106.976 26.12H116.856C116.776 24.8133 116.296 23.7733 115.416 23C114.536 22.2267 113.443 21.84 112.136 21.84ZM131.603 38.48C129.896 38.48 128.496 38.2133 127.403 37.68C126.309 37.12 125.496 36.3867 124.963 35.48C124.429 34.5733 124.163 33.5733 124.163 32.48C124.163 30.64 124.883 29.1467 126.323 28C127.763 26.8533 129.923 26.28 132.803 26.28H137.843V25.8C137.843 24.44 137.456 23.44 136.683 22.8C135.909 22.16 134.949 21.84 133.803 21.84C132.763 21.84 131.856 22.0933 131.083 22.6C130.309 23.08 129.829 23.8 129.643 24.76H124.643C124.776 23.32 125.256 22.0667 126.083 21C126.936 19.9333 128.029 19.12 129.363 18.56C130.696 17.9733 132.189 17.68 133.843 17.68C136.669 17.68 138.896 18.3867 140.523 19.8C142.149 21.2133 142.963 23.2133 142.963 25.8V38H138.603L138.123 34.8C137.536 35.8667 136.709 36.7467 135.643 37.44C134.603 38.1333 133.256 38.48 131.603 38.48ZM132.763 34.48C134.229 34.48 135.363 34 136.163 33.04C136.989 32.08 137.509 30.8933 137.723 29.48H133.363C132.003 29.48 131.029 29.7333 130.443 30.24C129.856 30.72 129.563 31.32 129.563 32.04C129.563 32.8133 129.856 33.4133 130.443 33.84C131.029 34.2667 131.803 34.48 132.763 34.48ZM146.248 38V18.16H150.768L151.168 21.52C151.782 20.3467 152.662 19.4133 153.808 18.72C154.982 18.0267 156.355 17.68 157.928 17.68C160.382 17.68 162.288 18.4533 163.648 20C165.008 21.5467 165.688 23.8133 165.688 26.8V38H160.568V27.28C160.568 25.5733 160.222 24.2667 159.528 23.36C158.835 22.4533 157.755 22 156.288 22C154.848 22 153.662 22.5067 152.728 23.52C151.822 24.5333 151.368 25.9467 151.368 27.76V38H146.248ZM180.744 38.48C179.251 38.48 177.944 38.2 176.824 37.64C175.704 37.08 174.798 36.2933 174.104 35.28L173.544 38H168.984V9.2H174.104V21C174.744 20.12 175.584 19.3467 176.624 18.68C177.691 18.0133 179.064 17.68 180.744 17.68C182.611 17.68 184.278 18.1333 185.744 19.04C187.211 19.9467 188.371 21.1867 189.224 22.76C190.078 24.3333 190.504 26.12 190.504 28.12C190.504 30.12 190.078 31.9067 189.224 33.48C188.371 35.0267 187.211 36.2533 185.744 37.16C184.278 38.04 182.611 38.48 180.744 38.48ZM179.664 34C181.291 34 182.638 33.4533 183.704 32.36C184.771 31.2667 185.304 29.8533 185.304 28.12C185.304 26.3867 184.771 24.96 183.704 23.84C182.638 22.72 181.291 22.16 179.664 22.16C178.011 22.16 176.651 22.72 175.584 23.84C174.544 24.9333 174.024 26.3467 174.024 28.08C174.024 29.8133 174.544 31.24 175.584 32.36C176.651 33.4533 178.011 34 179.664 34ZM196.238 15.08C195.305 15.08 194.531 14.8 193.918 14.24C193.331 13.68 193.038 12.9733 193.038 12.12C193.038 11.2667 193.331 10.5733 193.918 10.04C194.531 9.48 195.305 9.2 196.238 9.2C197.171 9.2 197.931 9.48 198.518 10.04C199.131 10.5733 199.438 11.2667 199.438 12.12C199.438 12.9733 199.131 13.68 198.518 14.24C197.931 14.8 197.171 15.08 196.238 15.08ZM193.678 38V18.16H198.798V38H193.678ZM211.382 38C209.302 38 207.636 37.4933 206.382 36.48C205.129 35.4667 204.502 33.6667 204.502 31.08V22.44H201.102V18.16H204.502L205.102 12.84H209.622V18.16H214.982V22.44H209.622V31.12C209.622 32.08 209.822 32.7467 210.222 33.12C210.649 33.4667 211.369 33.64 212.382 33.64H214.862V38H211.382Z" fill="#F7931A"/>
<defs>
<filter id="filter0_d_5_17" x="0.980316" y="2.17944" width="65.9667" height="47.4691" filterUnits="userSpaceOnUse" color-interpolation-filters="sRGB">
<feFlood flood-opacity="0" result="BackgroundImageFix"/>
<feColorMatrix in="SourceAlpha" type="matrix" values="0 0 0 0 0 0 0 0 0 0 0 0 0 0 0 0 0 0 127 0" result="hardAlpha"/>
<feOffset dy="4"/>
<feGaussianBlur stdDeviation="2"/>
<feComposite in2="hardAlpha" operator="out"/>
<feColorMatrix type="matrix" values="0 0 0 0 0 0 0 0 0 0 0 0 0 0 0 0 0 0 0.25 0"/>
<feBlend mode="normal" in2="BackgroundImageFix" result="effect1_dropShadow_5_17"/>
<feBlend mode="normal" in="SourceGraphic" in2="effect1_dropShadow_5_17" result="shape"/>
</filter>
</defs>
</svg>
