<svg width="85" height="60" viewBox="0 0 85 60" fill="none" xmlns="http://www.w3.org/2000/svg">
<path d="M3.048 46.4C2.568 46.4 2.14 46.296 1.764 46.088C1.396 45.872 1.108 45.58 0.9 45.212C0.692 44.836 0.588 44.408 0.588 43.928C0.588 43.456 0.692 43.032 0.9 42.656C1.108 42.28 1.396 41.988 1.764 41.78C2.14 41.564 2.568 41.456 3.048 41.456C3.52 41.456 3.94 41.564 4.308 41.78C4.684 41.988 4.976 42.28 5.184 42.656C5.392 43.032 5.496 43.456 5.496 43.928C5.496 44.408 5.392 44.836 5.184 45.212C4.976 45.58 4.684 45.872 4.308 46.088C3.94 46.296 3.52 46.4 3.048 46.4ZM3.048 45.908C3.624 45.908 4.088 45.724 4.44 45.356C4.792 44.988 4.968 44.512 4.968 43.928C4.968 43.352 4.792 42.88 4.44 42.512C4.088 42.144 3.624 41.96 3.048 41.96C2.464 41.96 1.996 42.144 1.644 42.512C1.292 42.88 1.116 43.352 1.116 43.928C1.116 44.512 1.292 44.988 1.644 45.356C1.996 45.724 2.464 45.908 3.048 45.908ZM2.052 45.188V42.62H3.252C3.516 42.62 3.728 42.692 3.888 42.836C4.048 42.98 4.128 43.176 4.128 43.424C4.128 43.816 3.94 44.068 3.564 44.18L4.236 45.188H3.492L2.904 44.216H2.688V45.188H2.052ZM2.688 43.736H3.168C3.256 43.736 3.332 43.716 3.396 43.676C3.46 43.628 3.492 43.552 3.492 43.448C3.492 43.352 3.46 43.284 3.396 43.244C3.332 43.204 3.256 43.184 3.168 43.184H2.688V43.736ZM9.94575 50V41.6H13.1138C13.9858 41.6 14.6458 41.804 15.0938 42.212C15.5418 42.62 15.7658 43.132 15.7658 43.748C15.7658 44.284 15.6218 44.712 15.3338 45.032C15.0458 45.344 14.6978 45.556 14.2898 45.668C14.6098 45.732 14.8938 45.86 15.1418 46.052C15.3978 46.244 15.5978 46.484 15.7418 46.772C15.8858 47.06 15.9578 47.372 15.9578 47.708C15.9578 48.14 15.8498 48.532 15.6338 48.884C15.4258 49.228 15.1178 49.5 14.7098 49.7C14.3018 49.9 13.8018 50 13.2098 50H9.94575ZM11.2178 45.2H12.9578C13.4458 45.2 13.8178 45.088 14.0738 44.864C14.3298 44.632 14.4578 44.316 14.4578 43.916C14.4578 43.524 14.3298 43.212 14.0738 42.98C13.8258 42.748 13.4458 42.632 12.9338 42.632H11.2178V45.2ZM11.2178 48.956H13.0418C13.5538 48.956 13.9498 48.836 14.2298 48.596C14.5178 48.356 14.6618 48.02 14.6618 47.588C14.6618 47.156 14.5138 46.816 14.2178 46.568C13.9218 46.312 13.5218 46.184 13.0178 46.184H11.2178V48.956ZM20.088 50.144C19.504 50.144 18.984 50.016 18.528 49.76C18.08 49.496 17.728 49.132 17.472 48.668C17.216 48.204 17.088 47.664 17.088 47.048C17.088 46.424 17.212 45.876 17.46 45.404C17.716 44.932 18.068 44.564 18.516 44.3C18.972 44.036 19.5 43.904 20.1 43.904C20.684 43.904 21.192 44.036 21.624 44.3C22.056 44.556 22.392 44.9 22.632 45.332C22.872 45.764 22.992 46.24 22.992 46.76C22.992 46.84 22.988 46.928 22.98 47.024C22.98 47.112 22.976 47.212 22.968 47.324H18.336C18.376 47.9 18.564 48.34 18.9 48.644C19.244 48.94 19.64 49.088 20.088 49.088C20.448 49.088 20.748 49.008 20.988 48.848C21.236 48.68 21.42 48.456 21.54 48.176H22.812C22.652 48.736 22.332 49.204 21.852 49.58C21.38 49.956 20.792 50.144 20.088 50.144ZM20.088 44.948C19.664 44.948 19.288 45.076 18.96 45.332C18.632 45.58 18.432 45.956 18.36 46.46H21.72C21.696 45.996 21.532 45.628 21.228 45.356C20.924 45.084 20.544 44.948 20.088 44.948ZM26.3278 50.144C25.8238 50.144 25.4078 50.06 25.0798 49.892C24.7518 49.724 24.5078 49.504 24.3478 49.232C24.1878 48.952 24.1078 48.648 24.1078 48.32C24.1078 47.744 24.3318 47.288 24.7798 46.952C25.2278 46.616 25.8678 46.448 26.6998 46.448H28.2598V46.34C28.2598 45.876 28.1318 45.528 27.8758 45.296C27.6278 45.064 27.3038 44.948 26.9038 44.948C26.5518 44.948 26.2438 45.036 25.9798 45.212C25.7238 45.38 25.5678 45.632 25.5118 45.968H24.2398C24.2798 45.536 24.4238 45.168 24.6718 44.864C24.9278 44.552 25.2478 44.316 25.6318 44.156C26.0238 43.988 26.4518 43.904 26.9158 43.904C27.7478 43.904 28.3918 44.124 28.8478 44.564C29.3038 44.996 29.5318 45.588 29.5318 46.34V50H28.4278L28.3198 48.98C28.1518 49.308 27.9078 49.584 27.5878 49.808C27.2678 50.032 26.8478 50.144 26.3278 50.144ZM26.5798 49.112C26.9238 49.112 27.2118 49.032 27.4438 48.872C27.6838 48.704 27.8678 48.484 27.9958 48.212C28.1318 47.94 28.2158 47.64 28.2478 47.312H26.8318C26.3278 47.312 25.9678 47.4 25.7518 47.576C25.5438 47.752 25.4398 47.972 25.4398 48.236C25.4398 48.508 25.5398 48.724 25.7398 48.884C25.9478 49.036 26.2278 49.112 26.5798 49.112ZM31.0149 50V44.048H32.1429L32.2389 45.092C32.4229 44.724 32.6909 44.436 33.0429 44.228C33.4029 44.012 33.8149 43.904 34.2789 43.904C34.9989 43.904 35.5629 44.128 35.9709 44.576C36.3869 45.024 36.5949 45.692 36.5949 46.58V50H35.3349V46.712C35.3349 45.56 34.8629 44.984 33.9189 44.984C33.4469 44.984 33.0549 45.152 32.7429 45.488C32.4389 45.824 32.2869 46.304 32.2869 46.928V50H31.0149ZM41.4411 50.144C40.9771 50.144 40.5651 50.052 40.2051 49.868C39.8531 49.684 39.5731 49.424 39.3651 49.088L39.2331 50H38.0931V41.36H39.3651V44.972C39.5571 44.692 39.8211 44.444 40.1571 44.228C40.4931 44.012 40.9251 43.904 41.4531 43.904C42.0291 43.904 42.5371 44.04 42.9771 44.312C43.4171 44.584 43.7611 44.956 44.0091 45.428C44.2651 45.9 44.3931 46.436 44.3931 47.036C44.3931 47.636 44.2651 48.172 44.0091 48.644C43.7611 49.108 43.4171 49.476 42.9771 49.748C42.5371 50.012 42.0251 50.144 41.4411 50.144ZM41.2251 49.04C41.7691 49.04 42.2171 48.856 42.5691 48.488C42.9211 48.112 43.0971 47.624 43.0971 47.024C43.0971 46.632 43.0171 46.284 42.8571 45.98C42.6971 45.676 42.4771 45.44 42.1971 45.272C41.9171 45.096 41.5931 45.008 41.2251 45.008C40.6811 45.008 40.2331 45.196 39.8811 45.572C39.5371 45.948 39.3651 46.432 39.3651 47.024C39.3651 47.624 39.5371 48.112 39.8811 48.488C40.2331 48.856 40.6811 49.04 41.2251 49.04ZM46.4888 42.92C46.2488 42.92 46.0488 42.848 45.8888 42.704C45.7368 42.552 45.6608 42.364 45.6608 42.14C45.6608 41.916 45.7368 41.732 45.8888 41.588C46.0488 41.436 46.2488 41.36 46.4888 41.36C46.7288 41.36 46.9248 41.436 47.0768 41.588C47.2368 41.732 47.3168 41.916 47.3168 42.14C47.3168 42.364 47.2368 42.552 47.0768 42.704C46.9248 42.848 46.7288 42.92 46.4888 42.92ZM45.8528 50V44.048H47.1248V50H45.8528ZM51.3 50C50.716 50 50.252 49.86 49.908 49.58C49.564 49.292 49.392 48.784 49.392 48.056V45.116H48.372V44.048H49.392L49.548 42.536H50.664V44.048H52.344V45.116H50.664V48.056C50.664 48.384 50.732 48.612 50.868 48.74C51.012 48.86 51.256 48.92 51.6 48.92H52.284V50H51.3ZM56.559 50V49.088C57.103 48.656 57.623 48.22 58.119 47.78C58.615 47.34 59.055 46.908 59.439 46.484C59.831 46.052 60.139 45.632 60.363 45.224C60.587 44.808 60.699 44.408 60.699 44.024C60.699 43.768 60.655 43.528 60.567 43.304C60.479 43.072 60.335 42.888 60.135 42.752C59.935 42.608 59.667 42.536 59.331 42.536C58.827 42.536 58.447 42.696 58.191 43.016C57.943 43.336 57.823 43.72 57.831 44.168H56.595C56.603 43.576 56.727 43.08 56.967 42.68C57.215 42.28 57.543 41.976 57.951 41.768C58.367 41.56 58.835 41.456 59.355 41.456C60.147 41.456 60.779 41.68 61.251 42.128C61.731 42.568 61.971 43.184 61.971 43.976C61.971 44.448 61.855 44.916 61.623 45.38C61.399 45.844 61.103 46.292 60.735 46.724C60.375 47.148 59.987 47.548 59.571 47.924C59.155 48.3 58.759 48.64 58.383 48.944H62.223V50H56.559ZM66.8604 50.144C66.1004 50.144 65.4444 49.964 64.8924 49.604C64.3484 49.236 63.9284 48.728 63.6324 48.08C63.3444 47.424 63.2004 46.664 63.2004 45.8C63.2004 44.936 63.3444 44.18 63.6324 43.532C63.9284 42.876 64.3484 42.368 64.8924 42.008C65.4444 41.64 66.1004 41.456 66.8604 41.456C67.6204 41.456 68.2724 41.64 68.8164 42.008C69.3604 42.368 69.7764 42.876 70.0644 43.532C70.3604 44.18 70.5084 44.936 70.5084 45.8C70.5084 46.664 70.3604 47.424 70.0644 48.08C69.7764 48.728 69.3604 49.236 68.8164 49.604C68.2724 49.964 67.6204 50.144 66.8604 50.144ZM66.8604 49.004C67.3164 49.004 67.7204 48.876 68.0724 48.62C68.4324 48.364 68.7124 47.996 68.9124 47.516C69.1124 47.036 69.2124 46.464 69.2124 45.8C69.2124 45.136 69.1124 44.564 68.9124 44.084C68.7124 43.604 68.4324 43.236 68.0724 42.98C67.7204 42.724 67.3164 42.596 66.8604 42.596C66.3964 42.596 65.9884 42.724 65.6364 42.98C65.2844 43.236 65.0084 43.604 64.8084 44.084C64.6084 44.564 64.5084 45.136 64.5084 45.8C64.5084 46.464 64.6084 47.036 64.8084 47.516C65.0084 47.996 65.2844 48.364 65.6364 48.62C65.9884 48.876 66.3964 49.004 66.8604 49.004ZM71.6645 50V49.088C72.2085 48.656 72.7285 48.22 73.2245 47.78C73.7205 47.34 74.1605 46.908 74.5445 46.484C74.9365 46.052 75.2445 45.632 75.4685 45.224C75.6925 44.808 75.8045 44.408 75.8045 44.024C75.8045 43.768 75.7605 43.528 75.6725 43.304C75.5845 43.072 75.4405 42.888 75.2405 42.752C75.0405 42.608 74.7725 42.536 74.4365 42.536C73.9325 42.536 73.5525 42.696 73.2965 43.016C73.0485 43.336 72.9285 43.72 72.9365 44.168H71.7005C71.7085 43.576 71.8325 43.08 72.0725 42.68C72.3205 42.28 72.6485 41.976 73.0565 41.768C73.4725 41.56 73.9405 41.456 74.4605 41.456C75.2525 41.456 75.8845 41.68 76.3565 42.128C76.8365 42.568 77.0765 43.184 77.0765 43.976C77.0765 44.448 76.9605 44.916 76.7285 45.38C76.5045 45.844 76.2085 46.292 75.8405 46.724C75.4805 47.148 75.0925 47.548 74.6765 47.924C74.2605 48.3 73.8645 48.64 73.4885 48.944H77.3285V50H71.6645ZM78.5317 50V49.088C79.0757 48.656 79.5957 48.22 80.0917 47.78C80.5877 47.34 81.0277 46.908 81.4117 46.484C81.8037 46.052 82.1117 45.632 82.3357 45.224C82.5597 44.808 82.6717 44.408 82.6717 44.024C82.6717 43.768 82.6277 43.528 82.5397 43.304C82.4517 43.072 82.3077 42.888 82.1077 42.752C81.9077 42.608 81.6397 42.536 81.3037 42.536C80.7997 42.536 80.4197 42.696 80.1637 43.016C79.9157 43.336 79.7957 43.72 79.8037 44.168H78.5677C78.5757 43.576 78.6997 43.08 78.9397 42.68C79.1877 42.28 79.5157 41.976 79.9237 41.768C80.3397 41.56 80.8077 41.456 81.3277 41.456C82.1197 41.456 82.7517 41.68 83.2237 42.128C83.7037 42.568 83.9437 43.184 83.9437 43.976C83.9437 44.448 83.8277 44.916 83.5957 45.38C83.3717 45.844 83.0757 46.292 82.7077 46.724C82.3477 47.148 81.9597 47.548 81.5437 47.924C81.1277 48.3 80.7317 48.64 80.3557 48.944H84.1957V50H78.5317Z" fill="#FFE9D4"/>
<g filter="url(#filter0_d_14_10)">
<path d="M58.7326 4.58881C60.8705 9.69353 55.6523 22.217 45.2737 24.9837C34.8951 27.7504 24.5259 24.9837 23.0509 17.2554C21.5758 9.52712 29.2293 9.69352 39.0637 9.69352C48.8982 -0.0905027 56.5947 -0.5159 58.7326 4.58881Z" fill="#FFD064"/>
</g>
<ellipse rx="2.59584" ry="1.00937" transform="matrix(0.925114 -0.37969 0.383039 0.923732 39.6975 9.63507)" fill="white"/>
<path d="M59.223 7.35385C59.2721 8.94216 58.603 9.69143 58.1541 9.6935C57.7999 9.6935 58.1541 8.52853 58.1541 7.35384C58.1541 6.17916 58.0136 4.3761 58.3679 4.3761C58.7654 4.19807 59.174 5.76554 59.223 7.35385Z" fill="white"/>
<defs>
<filter id="filter0_d_14_10" x="18.8683" y="1.36212" width="44.3373" height="32.6682" filterUnits="userSpaceOnUse" color-interpolation-filters="sRGB">
<feFlood flood-opacity="0" result="BackgroundImageFix"/>
<feColorMatrix in="SourceAlpha" type="matrix" values="0 0 0 0 0 0 0 0 0 0 0 0 0 0 0 0 0 0 127 0" result="hardAlpha"/>
<feOffset dy="4"/>
<feGaussianBlur stdDeviation="2"/>
<feComposite in2="hardAlpha" operator="out"/>
<feColorMatrix type="matrix" values="0 0 0 0 0 0 0 0 0 0 0 0 0 0 0 0 0 0 0.25 0"/>
<feBlend mode="normal" in2="BackgroundImageFix" result="effect1_dropShadow_14_10"/>
<feBlend mode="normal" in="SourceGraphic" in2="effect1_dropShadow_14_10" result="shape"/>
</filter>
</defs>
</svg>
